<svg width="180" height="48" viewBox="0 0 180 48" fill="none" xmlns="http://www.w3.org/2000/svg">
<path d="M32.4062 33H35.9453V26.8711H38.7812L41.9336 33H45.9414L42.3789 26.3438C44.2539 25.6055 45.4375 23.7539 45.4375 21.5273V21.5039C45.4375 18.1055 43.1875 16.0898 39.3906 16.0898H32.4062V33ZM35.9453 24.1875V18.8555H38.957C40.7031 18.8555 41.8164 19.8867 41.8164 21.5039V21.5273C41.8164 23.1914 40.7617 24.1875 39.0039 24.1875H35.9453ZM49.9631 33H53.678L54.9553 28.8984H60.9319L62.2092 33H65.9241L60.0295 16.0898H55.8694L49.9631 33ZM57.9084 19.3711H57.9788L60.1116 26.25H55.7756L57.9084 19.3711ZM72.6645 33H76.2036V19.0078H81.102V16.0898H67.7778V19.0078H72.6645V33ZM86.3191 33H89.8581V16.0898H86.3191V33ZM103.56 33.293C108.587 33.293 111.716 29.9297 111.716 24.5508V24.5273C111.716 19.1602 108.575 15.7969 103.56 15.7969C98.5556 15.7969 95.4033 19.1484 95.4033 24.5273V24.5508C95.4033 29.9297 98.5322 33.293 103.56 33.293ZM103.56 30.293C100.782 30.293 99.0127 28.0898 99.0127 24.5508V24.5273C99.0127 20.9883 100.794 18.7969 103.56 18.7969C106.337 18.7969 108.106 21 108.106 24.5273V24.5508C108.106 28.0547 106.372 30.293 103.56 30.293ZM124.201 33H127.915L129.193 28.8984H135.169L136.447 33H140.162L134.267 16.0898H130.107L124.201 33ZM132.146 19.3711H132.216L134.349 26.25H130.013L132.146 19.3711ZM145.156 33H148.695V27.668H151.953C155.515 27.668 157.894 25.3711 157.894 21.8906V21.8672C157.894 18.3867 155.515 16.0898 151.953 16.0898H145.156V33ZM151.086 18.8906C153.113 18.8906 154.308 19.957 154.308 21.8789V21.9023C154.308 23.8242 153.113 24.9023 151.086 24.9023H148.695V18.8906H151.086ZM163.252 33H166.791V27.668H170.049C173.611 27.668 175.99 25.3711 175.99 21.8906V21.8672C175.99 18.3867 173.611 16.0898 170.049 16.0898H163.252V33ZM169.182 18.8906C171.209 18.8906 172.404 19.957 172.404 21.8789V21.9023C172.404 23.8242 171.209 24.9023 169.182 24.9023H166.791V18.8906H169.182Z" fill="#34C759"/>
<path d="M13.4102 22.0391L22.75 16.6953C20.6992 13.5898 17.1836 11.4922 13.4102 11.2109V22.0391ZM12.4727 35.9258C15.2852 35.9258 17.9336 34.9648 20.0781 33.2773L11.3945 24.8398C11.1367 24.582 11.0195 24.3594 11.0195 23.9023V11.2695C4.90234 11.9844 0.0976562 17.2461 0.0976562 23.5508C0.0976562 30.3359 5.6875 35.9258 12.4727 35.9258ZM24.8477 23.5391C24.8477 21.8984 24.5078 20.2461 23.875 18.8164L14.3711 24.2539L21.8594 31.5664C23.7227 29.4219 24.8477 26.5742 24.8477 23.5391Z" fill="#34C759"/>
</svg>
