<svg width="230" height="48" viewBox="0 0 230 48" fill="none" xmlns="http://www.w3.org/2000/svg">
<path d="M15.4102 22.5391V11.7109C19.1836 11.9922 22.6992 14.0898 24.75 17.1953L15.4102 22.5391ZM14.4727 36.4258C7.6875 36.4258 2.09766 30.8359 2.09766 24.0508C2.09766 17.7461 6.90234 12.4844 13.0195 11.7695V24.4023C13.0195 24.8594 13.1367 25.082 13.3945 25.3398L22.0781 33.7773C19.9336 35.4648 17.2852 36.4258 14.4727 36.4258ZM26.8477 24.0391C26.8477 27.0742 25.7227 29.9219 23.8594 32.0664L16.3711 24.7539L25.875 19.3164C26.5078 20.7461 26.8477 22.3984 26.8477 24.0391Z" fill="#34C759"/>
<path d="M39.301 33V16.0898H46.2854C50.0822 16.0898 52.3322 18.1055 52.3322 21.5039V21.5273C52.3322 23.7539 51.1486 25.6055 49.2736 26.3438L52.8361 33H48.8283L45.676 26.8711H42.84V33H39.301ZM42.84 24.1875H45.8986C47.6565 24.1875 48.7111 23.1914 48.7111 21.5273V21.5039C48.7111 19.8867 47.5979 18.8555 45.8518 18.8555H42.84V24.1875ZM56.8579 33L62.7641 16.0898H66.9243L72.8188 33H69.104L67.8266 28.8984H61.85L60.5727 33H56.8579ZM64.8032 19.3711L62.6704 26.25H67.0063L64.8735 19.3711H64.8032ZM79.5593 33V19.0078H74.6726V16.0898H87.9968V19.0078H83.0983V33H79.5593ZM93.2138 33V16.0898H96.7529V33H93.2138ZM110.454 33.293C105.427 33.293 102.298 29.9297 102.298 24.5508V24.5273C102.298 19.1484 105.45 15.7969 110.454 15.7969C115.47 15.7969 118.611 19.1602 118.611 24.5273V24.5508C118.611 29.9297 115.482 33.293 110.454 33.293ZM110.454 30.293C113.267 30.293 115.001 28.0547 115.001 24.5508V24.5273C115.001 21 113.232 18.7969 110.454 18.7969C107.689 18.7969 105.907 20.9883 105.907 24.5273V24.5508C105.907 28.0898 107.677 30.293 110.454 30.293ZM132.173 33V16.0898H136.263L141.068 28.2422H141.138L145.943 16.0898H150.033V33H146.881V21.5625H146.775L142.216 33H139.99L135.42 21.5625H135.326V33H132.173ZM163.734 33.293C158.707 33.293 155.578 29.9297 155.578 24.5508V24.5273C155.578 19.1484 158.73 15.7969 163.734 15.7969C168.75 15.7969 171.891 19.1602 171.891 24.5273V24.5508C171.891 29.9297 168.762 33.293 163.734 33.293ZM163.734 30.293C166.547 30.293 168.281 28.0547 168.281 24.5508V24.5273C168.281 21 166.512 18.7969 163.734 18.7969C160.969 18.7969 159.187 20.9883 159.187 24.5273V24.5508C159.187 28.0898 160.957 30.293 163.734 30.293ZM177.436 33V16.0898H180.529L188.17 27.082H188.24V16.0898H191.768V33H188.697L181.033 21.9258H180.963V33H177.436ZM197.852 33V16.0898H209.055V19.0078H201.391V23.0625H208.621V25.8281H201.391V30.082H209.055V33H197.852ZM219.674 33V26.6836L213.792 16.0898H217.612L221.409 23.3086H221.491L225.276 16.0898H229.108L223.213 26.6836V33H219.674Z" fill="#34C759"/>
</svg>
